<svg width="120" height="38" viewBox="0 0 120 38" fill="none" xmlns="http://www.w3.org/2000/svg">
<g filter="url(#filter0_d_1_496)">
<path d="M50.3125 24C50.2292 23.8333 50.1615 23.5365 50.1094 23.1094C49.4375 23.8073 48.6354 24.1562 47.7031 24.1562C46.8698 24.1562 46.1849 23.9219 45.6484 23.4531C45.1172 22.9792 44.8516 22.3802 44.8516 21.6562C44.8516 20.776 45.1849 20.0938 45.8516 19.6094C46.5234 19.1198 47.4661 18.875 48.6797 18.875H50.0859V18.2109C50.0859 17.7057 49.9349 17.3047 49.6328 17.0078C49.3307 16.7057 48.8854 16.5547 48.2969 16.5547C47.7812 16.5547 47.349 16.6849 47 16.9453C46.651 17.2057 46.4766 17.5208 46.4766 17.8906H45.0234C45.0234 17.4688 45.1719 17.0625 45.4688 16.6719C45.7708 16.276 46.1771 15.9635 46.6875 15.7344C47.2031 15.5052 47.7682 15.3906 48.3828 15.3906C49.3568 15.3906 50.1198 15.6354 50.6719 16.125C51.224 16.6094 51.5104 17.2786 51.5312 18.1328V22.0234C51.5312 22.7995 51.6302 23.4167 51.8281 23.875V24H50.3125ZM47.9141 22.8984C48.3672 22.8984 48.7969 22.7812 49.2031 22.5469C49.6094 22.3125 49.9036 22.0078 50.0859 21.6328V19.8984H48.9531C47.1823 19.8984 46.2969 20.4167 46.2969 21.4531C46.2969 21.9062 46.4479 22.2604 46.75 22.5156C47.0521 22.7708 47.4401 22.8984 47.9141 22.8984ZM56.1672 24H54.7219V12H56.1672V24ZM62.7953 24.1562C61.6495 24.1562 60.7172 23.7812 59.9984 23.0312C59.2797 22.276 58.9203 21.2682 58.9203 20.0078V19.7422C58.9203 18.9036 59.0792 18.1562 59.3969 17.5C59.7198 16.8385 60.1677 16.3229 60.7406 15.9531C61.3188 15.5781 61.9438 15.3906 62.6156 15.3906C63.7146 15.3906 64.5688 15.7526 65.1781 16.4766C65.7875 17.2005 66.0922 18.237 66.0922 19.5859V20.1875H60.3656C60.3865 21.0208 60.6286 21.6953 61.0922 22.2109C61.5609 22.7214 62.1547 22.9766 62.8734 22.9766C63.3839 22.9766 63.8161 22.8724 64.1703 22.6641C64.5245 22.4557 64.8344 22.1797 65.1 21.8359L65.9828 22.5234C65.2745 23.612 64.212 24.1562 62.7953 24.1562ZM62.6156 16.5781C62.0323 16.5781 61.5427 16.7917 61.1469 17.2188C60.751 17.6406 60.5063 18.2344 60.4125 19H64.6469V18.8906C64.6052 18.1562 64.4073 17.5885 64.0531 17.1875C63.699 16.7812 63.2198 16.5781 62.6156 16.5781ZM69.9312 15.5469L69.9703 16.4844C70.5901 15.7552 71.426 15.3906 72.4781 15.3906C73.6604 15.3906 74.4651 15.8438 74.8922 16.75C75.1734 16.3438 75.538 16.0156 75.9859 15.7656C76.4391 15.5156 76.9729 15.3906 77.5875 15.3906C79.4417 15.3906 80.3844 16.3724 80.4156 18.3359V24H78.9703V18.4219C78.9703 17.8177 78.8323 17.3672 78.5562 17.0703C78.2802 16.7682 77.8167 16.6172 77.1656 16.6172C76.6292 16.6172 76.1839 16.7786 75.8297 17.1016C75.4755 17.4193 75.2698 17.849 75.2125 18.3906V24H73.7594V18.4609C73.7594 17.2318 73.1578 16.6172 71.9547 16.6172C71.0068 16.6172 70.3583 17.0208 70.0094 17.8281V24H68.5641V15.5469H69.9312ZM85.6219 16.4531C86.1844 15.7448 86.9031 15.3906 87.7781 15.3906C88.7104 15.3906 89.4135 15.6667 89.8875 16.2188C90.3615 16.7708 90.6036 17.5859 90.6141 18.6641V24H87.9734V18.7266C87.9734 18.2786 87.8823 17.9505 87.7 17.7422C87.5177 17.5286 87.2078 17.4219 86.7703 17.4219C86.2286 17.4219 85.8458 17.5938 85.6219 17.9375V24H82.9891V12H85.6219V16.4531ZM96.9688 24.1562C95.6719 24.1562 94.6224 23.7708 93.8203 23C93.0182 22.224 92.6172 21.2161 92.6172 19.9766V19.7578C92.6172 18.8932 92.776 18.1302 93.0938 17.4688C93.4167 16.8073 93.8854 16.2969 94.5 15.9375C95.1146 15.5729 95.8438 15.3906 96.6875 15.3906C97.875 15.3906 98.8125 15.7604 99.5 16.5C100.188 17.2344 100.531 18.2604 100.531 19.5781V20.6016H95.2969C95.3906 21.0755 95.5964 21.4479 95.9141 21.7188C96.2318 21.9896 96.6432 22.125 97.1484 22.125C97.9818 22.125 98.6328 21.8333 99.1016 21.25L100.305 22.6719C99.9766 23.125 99.5104 23.487 98.9062 23.7578C98.3073 24.0234 97.6615 24.1562 96.9688 24.1562ZM96.6719 17.4219C95.901 17.4219 95.4427 17.9323 95.2969 18.9531H97.9531V18.75C97.9635 18.3281 97.8568 18.0026 97.6328 17.7734C97.4089 17.5391 97.0885 17.4219 96.6719 17.4219ZM105.175 24H102.534V12H105.175V24ZM115.452 19.8359C115.452 21.1484 115.155 22.1979 114.561 22.9844C113.972 23.7656 113.176 24.1562 112.17 24.1562C111.394 24.1562 110.756 23.8724 110.256 23.3047V27.25H107.623V15.5469H110.084L110.162 16.3281C110.668 15.7031 111.332 15.3906 112.155 15.3906C113.196 15.3906 114.006 15.776 114.584 16.5469C115.162 17.3125 115.452 18.3672 115.452 19.7109V19.8359ZM112.819 19.6719C112.819 18.1719 112.381 17.4219 111.506 17.4219C110.881 17.4219 110.465 17.6458 110.256 18.0938V21.4219C110.485 21.8906 110.907 22.125 111.522 22.125C112.36 22.125 112.793 21.401 112.819 19.9531V19.6719Z" fill="black"/>
<path d="M25.1124 26.9583V19.0351H27.7533V29.5996H4V19.0351H6.64091V26.9583H25.1124Z" fill="#BCBBBC"/>
<path d="M9.28491 24.317H22.4895V21.6761H9.28491V24.317ZM21.1195 2.86102e-05L19.0004 1.57607L26.8811 12.1713L29.0001 10.5952L21.1195 2.86102e-05ZM14.5694 6.24648L24.7159 14.6969L26.406 12.6675L16.2595 4.21713L14.5694 6.24648ZM11.2569 12.1189L23.227 17.6937L24.342 15.2997L12.3719 9.7249L11.2569 12.1189ZM9.54713 18.3063L22.4695 21.0222L23.0126 18.4377L10.0903 15.7218L9.54713 18.3063Z" fill="#F48023"/>
</g>
<defs>
<filter id="filter0_d_1_496" x="0" y="0" width="119.452" height="37.5996" filterUnits="userSpaceOnUse" color-interpolation-filters="sRGB">
<feFlood flood-opacity="0" result="BackgroundImageFix"/>
<feColorMatrix in="SourceAlpha" type="matrix" values="0 0 0 0 0 0 0 0 0 0 0 0 0 0 0 0 0 0 127 0" result="hardAlpha"/>
<feOffset dy="4"/>
<feGaussianBlur stdDeviation="2"/>
<feComposite in2="hardAlpha" operator="out"/>
<feColorMatrix type="matrix" values="0 0 0 0 0 0 0 0 0 0 0 0 0 0 0 0 0 0 0.25 0"/>
<feBlend mode="normal" in2="BackgroundImageFix" result="effect1_dropShadow_1_496"/>
<feBlend mode="normal" in="SourceGraphic" in2="effect1_dropShadow_1_496" result="shape"/>
</filter>
</defs>
</svg>
